:SAMPLES-PER-SECOND 30
:FULLY-SPECIFIED
:DEGREES
94
root  -9.14307 36.429 -0.406849 74.0531 87.8325 68.5414
RightUpLeg  -21.8639 3.33929 -1.22316
RightLeg  67.267 10.5902 0.0532577
RightFoot  -6.73195 -0.0654343 1.15925
RightToes  -4.65663e-010 -1.59028e-015 9.93923e-017
Spine  42.0899 -0.0872231 -2.6484
Spine1  6.94183 -0.554346 -3.40369
HEad  -50.8235 1.91643 6.20582
LeftShoulder1  9.93923e-017 0 1.22299e-017
LeftArm  25.6008 -12.6517 -80.8054
LeftForeArm  -33.6143 -22.4551 9.22674
LeftHand  0.727332 5.14425 -0.315115
RightShoulder  1.98785e-016 -4.96962e-017 1.55301e-017
RightArm  35.0401 -25.5234 84.279
RightForeArm  -41.2192 17.849 -2.87423
RightHand  1.61848 -12.391 -8.81594
LeftUpLeg  -23.4208 -12.222 -6.15549
LeftLeg  42.1504 0.132264 11.0538
LeftFoot  -22.7758 -0.304459 -2.90841
LeftToes  3.34876e-009 -9.68256e-011 -6.12847e-011
95
root  -7.78029 37.2523 -0.354385 81.4534 89.0735 77.1143
RightUpLeg  -25.8717 2.78829 0.300174
RightLeg  63.3466 10.2303 -0.603447
RightFoot  -7.94114 -0.0138588 0.323916
RightToes  -4.65663e-010 -1.59028e-015 9.93923e-017
Spine  39.6014 -0.747794 -3.28734
Spine1  7.24539 -1.87209 -1.32992
HEad  -49.031 4.40005 5.23861
LeftShoulder1  9.93923e-017 0 1.22299e-017
LeftArm  31.3487 -14.3926 -79.0185
LeftForeArm  -41.015 -24.9243 15.8229
LeftHand  0.742463 5.23221 -0.490903
RightShoulder  1.98785e-016 -4.96962e-017 1.55301e-017
RightArm  36.4292 -31.9232 84.808
RightForeArm  -42.0431 18.1036 -3.30048
RightHand  1.45818 -11.7895 -7.65432
LeftUpLeg  -16.77 -12.3635 -5.09795
LeftLeg  36.1332 1.14762 9.36255
LeftFoot  -21.6695 -0.263669 -2.77015
LeftToes  3.34876e-009 -9.68256e-011 -6.12847e-011
96
root  -6.39686 37.9178 -0.288597 -138.654 89.805 -142.018
RightUpLeg  -29.1709 2.17726 1.45967
RightLeg  57.5862 10.3381 -0.0913848
RightFoot  -7.55379 -0.00156574 -0.0140699
RightToes  -4.66148e-010 0.002451 -2.27119e-008
Spine  37.2157 -1.54597 -3.88186
Spine1  7.16197 -3.17286 0.312699
HEad  -46.8429 6.49232 4.76769
LeftShoulder1  9.93923e-017 0 1.22299e-017
LeftArm  28.6791 -16.1442 -76.6837
LeftForeArm  -38.5359 -27.6832 18.3858
LeftHand  0.726345 5.15204 -0.198481
RightShoulder  1.98785e-016 -4.96962e-017 1.55301e-017
RightArm  37.737 -38.3262 84.5785
RightForeArm  -42.5641 18.4385 -4.13956
RightHand  1.26491 -11.0948 -5.74634
LeftUpLeg  -10.5831 -12.283 -4.18776
LeftLeg  30.3565 1.50219 7.42796
LeftFoot  -19.9847 -0.239829 -3.16221
LeftToes  3.34876e-009 -9.68256e-011 -6.12847e-011
97
root  -5.0039 38.3851 -0.213876 -145.317 88.8635 -147.863
RightUpLeg  -31.504 1.09313 2.30932
RightLeg  49.89 10.9691 0.974712
RightFoot  -6.31994 0.0505166 -0.31398
RightToes  -5.39556e-010 -0.0302289 2.80113e-007
Spine  34.889 -2.36211 -4.56542
Spine1  6.87516 -4.43651 1.83144
HEad  -44.4815 8.29605 4.41846
LeftShoulder1  9.93923e-017 0 1.22299e-017
LeftArm  24.425 -17.7061 -74.5676
LeftForeArm  -34.7041 -30.529 19.7097
LeftHand  0.692089 5.00662 0.527282
RightShoulder  1.98785e-016 -4.96962e-017 1.55301e-017
RightArm  39.0923 -44.4742 83.4662
RightForeArm  -43.1033 18.7695 -5.14048
RightHand  1.1809 -10.8939 -4.40905
LeftUpLeg  -5.04599 -13.0924 -3.67685
LeftLeg  25.4917 2.0786 6.02003
LeftFoot  -17.8724 -0.205691 -3.96938
LeftToes  3.34876e-009 -9.68256e-011 -6.12847e-011
98
root  -3.57216 38.6582 -0.12696 -148.989 87.7793 -151.044
RightUpLeg  -32.7307 -0.819998 3.13889
RightLeg  40.1981 12.6106 2.40935
RightFoot  -4.53089 0.0247093 -0.189152
RightToes  -4.70706e-010 -0.00789768 7.31829e-008
Spine  32.2869 -3.19739 -5.37652
Spine1  6.6728 -5.74261 3.55808
HEad  -42.1606 9.7891 4.14105
LeftShoulder1  9.93923e-017 0 1.22299e-017
LeftArm  21.006 -18.9871 -72.9331
LeftForeArm  -32.9599 -33.1281 20.9415
LeftHand  0.682292 5.0123 1.09759
RightShoulder  1.98785e-016 -4.96962e-017 1.55301e-017
RightArm  39.6734 -50.0655 81.2415
RightForeArm  -42.6849 18.8914 -5.72047
RightHand  1.19947 -11.0808 -4.2494
LeftUpLeg  -0.254652 -14.4211 -3.64419
LeftLeg  21.5639 2.69724 5.32006
LeftFoot  -15.935 -0.147781 -4.60736
LeftToes  3.34876e-009 -9.68256e-011 -6.12847e-011
99
root  -2.07155 38.7811 -0.0137341 -154.136 86.4881 -155.984
RightUpLeg  -32.7606 -3.25931 4.14413
RightLeg  28.8299 15.0988 3.28472
RightFoot  -2.24461 -0.116156 1.20088
RightToes  -4.65717e-010 0.000817001 -7.57064e-009
Spine  29.3372 -3.98709 -6.13795
Spine1  6.72458 -6.99289 5.41418
HEad  -39.8039 10.6445 4.09984
LeftShoulder1  9.93923e-017 0 1.22299e-017
LeftArm  18.562 -20.067 -71.9654
LeftForeArm  -32.6214 -35.0261 21.8462
LeftHand  0.688992 5.09685 1.43391
RightShoulder  1.98785e-016 -4.96962e-017 1.55301e-017
RightArm  38.6595 -55.0451 77.9048
RightForeArm  -40.6377 18.7119 -5.58516
RightHand  1.22116 -11.1399 -4.58021
LeftUpLeg  4.00401 -11.9052 -3.14546
LeftLeg  17.533 -0.585758 4.84969
LeftFoot  -14.5598 -0.0936679 -5.07678
LeftToes  3.34876e-009 -9.68256e-011 -6.12847e-011
